<mxfile host="65bd71144e">
    <diagram name="Page-1" id="e56a1550-8fbb-45ad-956c-1786394a9013">
        <mxGraphModel dx="1070" dy="1772" grid="1" gridSize="10" guides="1" tooltips="1" connect="1" arrows="1" fold="1" page="1" pageScale="1" pageWidth="1100" pageHeight="850" background="none" math="0" shadow="0">
            <root>
                <mxCell id="0"/>
                <mxCell id="1" parent="0"/>
                <mxCell id="f9DGjgpMhJVJxJ-70Zpv-1" value="&lt;font style=&quot;font-size: 64px&quot;&gt;users&lt;/font&gt;" style="text;html=1;strokeColor=none;fillColor=none;align=center;verticalAlign=middle;whiteSpace=wrap;rounded=0;" parent="1" vertex="1">
                    <mxGeometry y="-120" width="600" height="80" as="geometry"/>
                </mxCell>
                <mxCell id="232" value="tokens" style="shape=table;startSize=38;container=1;collapsible=0;childLayout=tableLayout;fixedRows=1;rowLines=1;fontStyle=1;align=center;pointerEvents=1;rounded=0;shadow=0;labelBackgroundColor=none;labelBorderColor=none;comic=0;sketch=0;fontFamily=Verdana;fontSize=14;fontColor=default;strokeColor=default;strokeWidth=1;fillColor=#4A62FF;gradientColor=none;html=1;resizeLast=1;autosize=1;" parent="1" vertex="1">
                    <mxGeometry y="-320" width="240" height="158" as="geometry"/>
                </mxCell>
                <mxCell id="233" value="" style="shape=partialRectangle;html=1;whiteSpace=wrap;collapsible=0;dropTarget=0;pointerEvents=1;fillColor=none;top=0;left=0;bottom=1;right=0;points=[[0,0.5],[1,0.5]];portConstraint=eastwest;rounded=0;shadow=0;labelBackgroundColor=none;labelBorderColor=none;comic=0;sketch=0;fontFamily=Verdana;fontSize=14;fontColor=default;startSize=26;strokeColor=default;strokeWidth=1;" parent="232" vertex="1">
                    <mxGeometry y="38" width="240" height="40" as="geometry"/>
                </mxCell>
                <mxCell id="234" value="PK&lt;br&gt;string" style="shape=partialRectangle;html=1;whiteSpace=wrap;connectable=0;fillColor=default;top=1;left=1;bottom=1;right=1;overflow=hidden;pointerEvents=1;rounded=0;shadow=0;labelBackgroundColor=none;labelBorderColor=none;comic=0;sketch=0;fontFamily=Verdana;fontSize=14;fontColor=default;startSize=26;strokeColor=default;strokeWidth=1;align=center;" parent="233" vertex="1">
                    <mxGeometry width="60" height="40" as="geometry">
                        <mxRectangle width="60" height="40" as="alternateBounds"/>
                    </mxGeometry>
                </mxCell>
                <mxCell id="235" value="id" style="shape=partialRectangle;html=1;whiteSpace=wrap;connectable=0;fillColor=default;top=1;left=1;bottom=1;right=1;align=left;spacingLeft=6;overflow=hidden;pointerEvents=1;rounded=0;shadow=0;labelBackgroundColor=none;labelBorderColor=none;comic=0;sketch=0;fontFamily=Verdana;fontSize=14;fontColor=default;startSize=26;strokeColor=default;strokeWidth=1;" parent="233" vertex="1">
                    <mxGeometry x="60" width="180" height="40" as="geometry">
                        <mxRectangle width="180" height="40" as="alternateBounds"/>
                    </mxGeometry>
                </mxCell>
                <mxCell id="236" style="shape=partialRectangle;html=1;whiteSpace=wrap;collapsible=0;dropTarget=0;pointerEvents=1;fillColor=none;top=0;left=0;bottom=1;right=0;points=[[0,0.5],[1,0.5]];portConstraint=eastwest;rounded=0;shadow=0;labelBackgroundColor=none;labelBorderColor=none;comic=0;sketch=0;fontFamily=Verdana;fontSize=14;fontColor=default;startSize=26;strokeColor=default;strokeWidth=1;" parent="232" vertex="1">
                    <mxGeometry y="78" width="240" height="40" as="geometry"/>
                </mxCell>
                <mxCell id="237" value="string" style="shape=partialRectangle;html=1;whiteSpace=wrap;connectable=0;fillColor=default;top=1;left=1;bottom=1;right=1;overflow=hidden;pointerEvents=1;rounded=0;shadow=0;labelBackgroundColor=none;labelBorderColor=none;comic=0;sketch=0;fontFamily=Verdana;fontSize=14;fontColor=default;startSize=26;strokeColor=default;strokeWidth=1;align=center;" parent="236" vertex="1">
                    <mxGeometry width="60" height="40" as="geometry">
                        <mxRectangle width="60" height="40" as="alternateBounds"/>
                    </mxGeometry>
                </mxCell>
                <mxCell id="238" value="token" style="shape=partialRectangle;html=1;whiteSpace=wrap;connectable=0;fillColor=default;top=1;left=1;bottom=1;right=1;align=left;spacingLeft=6;overflow=hidden;pointerEvents=1;rounded=0;shadow=0;labelBackgroundColor=none;labelBorderColor=none;comic=0;sketch=0;fontFamily=Verdana;fontSize=14;fontColor=default;startSize=26;strokeColor=default;strokeWidth=1;" parent="236" vertex="1">
                    <mxGeometry x="60" width="180" height="40" as="geometry">
                        <mxRectangle width="180" height="40" as="alternateBounds"/>
                    </mxGeometry>
                </mxCell>
                <mxCell id="240" style="shape=partialRectangle;html=1;whiteSpace=wrap;collapsible=0;dropTarget=0;pointerEvents=1;fillColor=none;top=0;left=0;bottom=1;right=0;points=[[0,0.5],[1,0.5]];portConstraint=eastwest;rounded=0;shadow=0;labelBackgroundColor=none;labelBorderColor=none;comic=0;sketch=0;fontFamily=Verdana;fontSize=14;fontColor=default;startSize=26;strokeColor=default;strokeWidth=1;" parent="232" vertex="1">
                    <mxGeometry y="118" width="240" height="40" as="geometry"/>
                </mxCell>
                <mxCell id="241" value="bool" style="shape=partialRectangle;html=1;whiteSpace=wrap;connectable=0;fillColor=default;top=1;left=1;bottom=1;right=1;overflow=hidden;pointerEvents=1;rounded=0;shadow=0;labelBackgroundColor=none;labelBorderColor=none;comic=0;sketch=0;fontFamily=Verdana;fontSize=14;fontColor=default;startSize=26;strokeColor=default;strokeWidth=1;align=center;" parent="240" vertex="1">
                    <mxGeometry width="60" height="40" as="geometry">
                        <mxRectangle width="60" height="40" as="alternateBounds"/>
                    </mxGeometry>
                </mxCell>
                <mxCell id="242" value="hasUsed" style="shape=partialRectangle;html=1;whiteSpace=wrap;connectable=0;fillColor=default;top=1;left=1;bottom=1;right=1;align=left;spacingLeft=6;overflow=hidden;pointerEvents=1;rounded=0;shadow=0;labelBackgroundColor=none;labelBorderColor=none;comic=0;sketch=0;fontFamily=Verdana;fontSize=14;fontColor=default;startSize=26;strokeColor=default;strokeWidth=1;" parent="240" vertex="1">
                    <mxGeometry x="60" width="180" height="40" as="geometry">
                        <mxRectangle width="180" height="40" as="alternateBounds"/>
                    </mxGeometry>
                </mxCell>
                <mxCell id="239" value="&lt;font style=&quot;font-size: 64px&quot;&gt;tokens&lt;/font&gt;" style="text;html=1;strokeColor=none;fillColor=none;align=center;verticalAlign=middle;whiteSpace=wrap;rounded=0;" parent="1" vertex="1">
                    <mxGeometry y="-400" width="210" height="80" as="geometry"/>
                </mxCell>
                <mxCell id="292" value="users" style="shape=table;startSize=40;container=1;collapsible=0;childLayout=tableLayout;fixedRows=1;rowLines=1;fontStyle=1;align=center;pointerEvents=1;rounded=0;shadow=0;labelBackgroundColor=none;labelBorderColor=none;comic=0;sketch=0;fontFamily=Verdana;fontSize=14;fontColor=default;strokeColor=default;strokeWidth=1;fillColor=#4A62FF;gradientColor=none;html=1;resizeLast=1;autosize=1;" parent="1" vertex="1">
                    <mxGeometry y="-40" width="280" height="360" as="geometry"/>
                </mxCell>
                <mxCell id="293" value="" style="shape=partialRectangle;html=1;whiteSpace=wrap;collapsible=0;dropTarget=0;pointerEvents=1;fillColor=none;top=0;left=0;bottom=1;right=0;points=[[0,0.5],[1,0.5]];portConstraint=eastwest;rounded=0;shadow=0;labelBackgroundColor=none;labelBorderColor=none;comic=0;sketch=0;fontFamily=Verdana;fontSize=14;fontColor=default;startSize=26;strokeColor=default;strokeWidth=1;" parent="292" vertex="1">
                    <mxGeometry y="40" width="280" height="40" as="geometry"/>
                </mxCell>
                <mxCell id="294" value="PK&lt;br&gt;String" style="shape=partialRectangle;html=1;whiteSpace=wrap;connectable=0;fillColor=default;top=1;left=1;bottom=1;right=1;overflow=hidden;pointerEvents=1;rounded=0;shadow=0;labelBackgroundColor=none;labelBorderColor=none;comic=0;sketch=0;fontFamily=Verdana;fontSize=14;fontColor=default;startSize=26;strokeColor=default;strokeWidth=1;align=center;" parent="293" vertex="1">
                    <mxGeometry width="70" height="40" as="geometry">
                        <mxRectangle width="70" height="40" as="alternateBounds"/>
                    </mxGeometry>
                </mxCell>
                <mxCell id="295" value="id" style="shape=partialRectangle;html=1;whiteSpace=wrap;connectable=0;fillColor=default;top=1;left=1;bottom=1;right=1;align=left;spacingLeft=6;overflow=hidden;pointerEvents=1;rounded=0;shadow=0;labelBackgroundColor=none;labelBorderColor=none;comic=0;sketch=0;fontFamily=Verdana;fontSize=14;fontColor=default;startSize=26;strokeColor=default;strokeWidth=1;" parent="293" vertex="1">
                    <mxGeometry x="70" width="210" height="40" as="geometry">
                        <mxRectangle width="210" height="40" as="alternateBounds"/>
                    </mxGeometry>
                </mxCell>
                <mxCell id="296" style="shape=partialRectangle;html=1;whiteSpace=wrap;collapsible=0;dropTarget=0;pointerEvents=1;fillColor=none;top=0;left=0;bottom=1;right=0;points=[[0,0.5],[1,0.5]];portConstraint=eastwest;rounded=0;shadow=0;labelBackgroundColor=none;labelBorderColor=none;comic=0;sketch=0;fontFamily=Verdana;fontSize=14;fontColor=default;startSize=26;strokeColor=default;strokeWidth=1;" parent="292" vertex="1">
                    <mxGeometry y="80" width="280" height="40" as="geometry"/>
                </mxCell>
                <mxCell id="297" value="String" style="shape=partialRectangle;html=1;whiteSpace=wrap;connectable=0;fillColor=default;top=1;left=1;bottom=1;right=1;overflow=hidden;pointerEvents=1;rounded=0;shadow=0;labelBackgroundColor=none;labelBorderColor=none;comic=0;sketch=0;fontFamily=Verdana;fontSize=14;fontColor=default;startSize=26;strokeColor=default;strokeWidth=1;align=center;" parent="296" vertex="1">
                    <mxGeometry width="70" height="40" as="geometry">
                        <mxRectangle width="70" height="40" as="alternateBounds"/>
                    </mxGeometry>
                </mxCell>
                <mxCell id="298" value="name" style="shape=partialRectangle;html=1;whiteSpace=wrap;connectable=0;fillColor=default;top=1;left=1;bottom=1;right=1;align=left;spacingLeft=6;overflow=hidden;pointerEvents=1;rounded=0;shadow=0;labelBackgroundColor=none;labelBorderColor=none;comic=0;sketch=0;fontFamily=Verdana;fontSize=14;fontColor=default;startSize=26;strokeColor=default;strokeWidth=1;" parent="296" vertex="1">
                    <mxGeometry x="70" width="210" height="40" as="geometry">
                        <mxRectangle width="210" height="40" as="alternateBounds"/>
                    </mxGeometry>
                </mxCell>
                <mxCell id="299" style="shape=partialRectangle;html=1;whiteSpace=wrap;collapsible=0;dropTarget=0;pointerEvents=1;fillColor=none;top=0;left=0;bottom=1;right=0;points=[[0,0.5],[1,0.5]];portConstraint=eastwest;rounded=0;shadow=0;labelBackgroundColor=none;labelBorderColor=none;comic=0;sketch=0;fontFamily=Verdana;fontSize=14;fontColor=default;startSize=26;strokeColor=default;strokeWidth=1;" parent="292" vertex="1">
                    <mxGeometry y="120" width="280" height="40" as="geometry"/>
                </mxCell>
                <mxCell id="300" value="String" style="shape=partialRectangle;html=1;whiteSpace=wrap;connectable=0;fillColor=default;top=1;left=1;bottom=1;right=1;overflow=hidden;pointerEvents=1;rounded=0;shadow=0;labelBackgroundColor=none;labelBorderColor=none;comic=0;sketch=0;fontFamily=Verdana;fontSize=14;fontColor=default;startSize=26;strokeColor=default;strokeWidth=1;align=center;" parent="299" vertex="1">
                    <mxGeometry width="70" height="40" as="geometry">
                        <mxRectangle width="70" height="40" as="alternateBounds"/>
                    </mxGeometry>
                </mxCell>
                <mxCell id="301" value="email" style="shape=partialRectangle;html=1;whiteSpace=wrap;connectable=0;fillColor=default;top=1;left=1;bottom=1;right=1;align=left;spacingLeft=6;overflow=hidden;pointerEvents=1;rounded=0;shadow=0;labelBackgroundColor=none;labelBorderColor=none;comic=0;sketch=0;fontFamily=Verdana;fontSize=14;fontColor=default;startSize=26;strokeColor=default;strokeWidth=1;" parent="299" vertex="1">
                    <mxGeometry x="70" width="210" height="40" as="geometry">
                        <mxRectangle width="210" height="40" as="alternateBounds"/>
                    </mxGeometry>
                </mxCell>
                <mxCell id="311" style="shape=partialRectangle;html=1;whiteSpace=wrap;collapsible=0;dropTarget=0;pointerEvents=1;fillColor=none;top=0;left=0;bottom=1;right=0;points=[[0,0.5],[1,0.5]];portConstraint=eastwest;rounded=0;shadow=0;labelBackgroundColor=none;labelBorderColor=none;comic=0;sketch=0;fontFamily=Verdana;fontSize=14;fontColor=default;startSize=26;strokeColor=default;strokeWidth=1;" parent="292" vertex="1">
                    <mxGeometry y="160" width="280" height="40" as="geometry"/>
                </mxCell>
                <mxCell id="312" value="String" style="shape=partialRectangle;html=1;whiteSpace=wrap;connectable=0;fillColor=default;top=1;left=1;bottom=1;right=1;overflow=hidden;pointerEvents=1;rounded=0;shadow=0;labelBackgroundColor=none;labelBorderColor=none;comic=0;sketch=0;fontFamily=Verdana;fontSize=14;fontColor=default;startSize=26;strokeColor=default;strokeWidth=1;align=center;" parent="311" vertex="1">
                    <mxGeometry width="70" height="40" as="geometry">
                        <mxRectangle width="70" height="40" as="alternateBounds"/>
                    </mxGeometry>
                </mxCell>
                <mxCell id="313" value="image" style="shape=partialRectangle;html=1;whiteSpace=wrap;connectable=0;fillColor=default;top=1;left=1;bottom=1;right=1;align=left;spacingLeft=6;overflow=hidden;pointerEvents=1;rounded=0;shadow=0;labelBackgroundColor=none;labelBorderColor=none;comic=0;sketch=0;fontFamily=Verdana;fontSize=14;fontColor=default;startSize=26;strokeColor=default;strokeWidth=1;" parent="311" vertex="1">
                    <mxGeometry x="70" width="210" height="40" as="geometry">
                        <mxRectangle width="210" height="40" as="alternateBounds"/>
                    </mxGeometry>
                </mxCell>
                <mxCell id="396" style="shape=partialRectangle;html=1;whiteSpace=wrap;collapsible=0;dropTarget=0;pointerEvents=1;fillColor=none;top=0;left=0;bottom=1;right=0;points=[[0,0.5],[1,0.5]];portConstraint=eastwest;rounded=0;shadow=0;labelBackgroundColor=none;labelBorderColor=none;comic=0;sketch=0;fontFamily=Verdana;fontSize=14;fontColor=default;startSize=26;strokeColor=default;strokeWidth=1;" parent="292" vertex="1">
                    <mxGeometry y="200" width="280" height="40" as="geometry"/>
                </mxCell>
                <mxCell id="397" value="String" style="shape=partialRectangle;html=1;whiteSpace=wrap;connectable=0;fillColor=default;top=1;left=1;bottom=1;right=1;overflow=hidden;pointerEvents=1;rounded=0;shadow=0;labelBackgroundColor=none;labelBorderColor=none;comic=0;sketch=0;fontFamily=Verdana;fontSize=14;fontColor=default;startSize=26;strokeColor=default;strokeWidth=1;align=center;" parent="396" vertex="1">
                    <mxGeometry width="70" height="40" as="geometry">
                        <mxRectangle width="70" height="40" as="alternateBounds"/>
                    </mxGeometry>
                </mxCell>
                <mxCell id="398" value="customUrl" style="shape=partialRectangle;html=1;whiteSpace=wrap;connectable=0;fillColor=default;top=1;left=1;bottom=1;right=1;align=left;spacingLeft=6;overflow=hidden;pointerEvents=1;rounded=0;shadow=0;labelBackgroundColor=none;labelBorderColor=none;comic=0;sketch=0;fontFamily=Verdana;fontSize=14;fontColor=default;startSize=26;strokeColor=default;strokeWidth=1;" parent="396" vertex="1">
                    <mxGeometry x="70" width="210" height="40" as="geometry">
                        <mxRectangle width="210" height="40" as="alternateBounds"/>
                    </mxGeometry>
                </mxCell>
                <mxCell id="308" style="shape=partialRectangle;html=1;whiteSpace=wrap;collapsible=0;dropTarget=0;pointerEvents=1;fillColor=none;top=0;left=0;bottom=1;right=0;points=[[0,0.5],[1,0.5]];portConstraint=eastwest;rounded=0;shadow=0;labelBackgroundColor=none;labelBorderColor=none;comic=0;sketch=0;fontFamily=Verdana;fontSize=14;fontColor=default;startSize=26;strokeColor=default;strokeWidth=1;" parent="292" vertex="1">
                    <mxGeometry y="240" width="280" height="40" as="geometry"/>
                </mxCell>
                <mxCell id="309" value="&lt;span&gt;Boolean&lt;/span&gt;" style="shape=partialRectangle;html=1;whiteSpace=wrap;connectable=0;fillColor=default;top=1;left=1;bottom=1;right=1;overflow=hidden;pointerEvents=1;rounded=0;shadow=0;labelBackgroundColor=none;labelBorderColor=none;comic=0;sketch=0;fontFamily=Verdana;fontSize=14;fontColor=default;startSize=26;strokeColor=default;strokeWidth=1;align=center;" parent="308" vertex="1">
                    <mxGeometry width="70" height="40" as="geometry">
                        <mxRectangle width="70" height="40" as="alternateBounds"/>
                    </mxGeometry>
                </mxCell>
                <mxCell id="310" value="isBlocked" style="shape=partialRectangle;html=1;whiteSpace=wrap;connectable=0;fillColor=default;top=1;left=1;bottom=1;right=1;align=left;spacingLeft=6;overflow=hidden;pointerEvents=1;rounded=0;shadow=0;labelBackgroundColor=none;labelBorderColor=none;comic=0;sketch=0;fontFamily=Verdana;fontSize=14;fontColor=default;startSize=26;strokeColor=default;strokeWidth=1;" parent="308" vertex="1">
                    <mxGeometry x="70" width="210" height="40" as="geometry">
                        <mxRectangle width="210" height="40" as="alternateBounds"/>
                    </mxGeometry>
                </mxCell>
                <mxCell id="302" style="shape=partialRectangle;html=1;whiteSpace=wrap;collapsible=0;dropTarget=0;pointerEvents=1;fillColor=none;top=0;left=0;bottom=1;right=0;points=[[0,0.5],[1,0.5]];portConstraint=eastwest;rounded=0;shadow=0;labelBackgroundColor=none;labelBorderColor=none;comic=0;sketch=0;fontFamily=Verdana;fontSize=14;fontColor=default;startSize=26;strokeColor=default;strokeWidth=1;" parent="292" vertex="1">
                    <mxGeometry y="280" width="280" height="40" as="geometry"/>
                </mxCell>
                <mxCell id="303" value="String" style="shape=partialRectangle;html=1;whiteSpace=wrap;connectable=0;fillColor=default;top=1;left=1;bottom=1;right=1;overflow=hidden;pointerEvents=1;rounded=0;shadow=0;labelBackgroundColor=none;labelBorderColor=none;comic=0;sketch=0;fontFamily=Verdana;fontSize=14;fontColor=default;startSize=26;strokeColor=default;strokeWidth=1;align=center;" parent="302" vertex="1">
                    <mxGeometry width="70" height="40" as="geometry">
                        <mxRectangle width="70" height="40" as="alternateBounds"/>
                    </mxGeometry>
                </mxCell>
                <mxCell id="304" value="password" style="shape=partialRectangle;html=1;whiteSpace=wrap;connectable=0;fillColor=default;top=1;left=1;bottom=1;right=1;align=left;spacingLeft=6;overflow=hidden;pointerEvents=1;rounded=0;shadow=0;labelBackgroundColor=none;labelBorderColor=none;comic=0;sketch=0;fontFamily=Verdana;fontSize=14;fontColor=default;startSize=26;strokeColor=default;strokeWidth=1;" parent="302" vertex="1">
                    <mxGeometry x="70" width="210" height="40" as="geometry">
                        <mxRectangle width="210" height="40" as="alternateBounds"/>
                    </mxGeometry>
                </mxCell>
                <mxCell id="314" style="shape=partialRectangle;html=1;whiteSpace=wrap;collapsible=0;dropTarget=0;pointerEvents=1;fillColor=none;top=0;left=0;bottom=1;right=0;points=[[0,0.5],[1,0.5]];portConstraint=eastwest;rounded=0;shadow=0;labelBackgroundColor=none;labelBorderColor=none;comic=0;sketch=0;fontFamily=Verdana;fontSize=14;fontColor=default;startSize=26;strokeColor=default;strokeWidth=1;" parent="292" vertex="1">
                    <mxGeometry y="320" width="280" height="40" as="geometry"/>
                </mxCell>
                <mxCell id="315" value="DateTime?" style="shape=partialRectangle;html=1;whiteSpace=wrap;connectable=0;fillColor=default;top=1;left=1;bottom=1;right=1;overflow=hidden;pointerEvents=1;rounded=0;shadow=0;labelBackgroundColor=none;labelBorderColor=none;comic=0;sketch=0;fontFamily=Verdana;fontSize=14;fontColor=default;startSize=26;strokeColor=default;strokeWidth=1;align=center;" parent="314" vertex="1">
                    <mxGeometry width="70" height="40" as="geometry">
                        <mxRectangle width="70" height="40" as="alternateBounds"/>
                    </mxGeometry>
                </mxCell>
                <mxCell id="316" value="lastAccess" style="shape=partialRectangle;html=1;whiteSpace=wrap;connectable=0;fillColor=default;top=1;left=1;bottom=1;right=1;align=left;spacingLeft=6;overflow=hidden;pointerEvents=1;rounded=0;shadow=0;labelBackgroundColor=none;labelBorderColor=none;comic=0;sketch=0;fontFamily=Verdana;fontSize=14;fontColor=default;startSize=26;strokeColor=default;strokeWidth=1;" parent="314" vertex="1">
                    <mxGeometry x="70" width="210" height="40" as="geometry">
                        <mxRectangle width="210" height="40" as="alternateBounds"/>
                    </mxGeometry>
                </mxCell>
                <mxCell id="318" value="usersPermissions" style="shape=table;startSize=40;container=1;collapsible=0;childLayout=tableLayout;fixedRows=1;rowLines=1;fontStyle=1;align=center;pointerEvents=1;rounded=0;shadow=0;labelBackgroundColor=none;labelBorderColor=none;comic=0;sketch=0;fontFamily=Verdana;fontSize=14;fontColor=default;strokeColor=default;strokeWidth=1;fillColor=#4A62FF;gradientColor=none;html=1;resizeLast=1;autosize=1;" parent="1" vertex="1">
                    <mxGeometry x="320" y="-40" width="280" height="160" as="geometry"/>
                </mxCell>
                <mxCell id="319" value="" style="shape=partialRectangle;html=1;whiteSpace=wrap;collapsible=0;dropTarget=0;pointerEvents=1;fillColor=none;top=0;left=0;bottom=1;right=0;points=[[0,0.5],[1,0.5]];portConstraint=eastwest;rounded=0;shadow=0;labelBackgroundColor=none;labelBorderColor=none;comic=0;sketch=0;fontFamily=Verdana;fontSize=14;fontColor=default;startSize=26;strokeColor=default;strokeWidth=1;" parent="318" vertex="1">
                    <mxGeometry y="40" width="280" height="40" as="geometry"/>
                </mxCell>
                <mxCell id="320" value="PK&lt;br&gt;String" style="shape=partialRectangle;html=1;whiteSpace=wrap;connectable=0;fillColor=default;top=1;left=1;bottom=1;right=1;overflow=hidden;pointerEvents=1;rounded=0;shadow=0;labelBackgroundColor=none;labelBorderColor=none;comic=0;sketch=0;fontFamily=Verdana;fontSize=14;fontColor=default;startSize=26;strokeColor=default;strokeWidth=1;align=center;" parent="319" vertex="1">
                    <mxGeometry width="70" height="40" as="geometry">
                        <mxRectangle width="70" height="40" as="alternateBounds"/>
                    </mxGeometry>
                </mxCell>
                <mxCell id="321" value="id" style="shape=partialRectangle;html=1;whiteSpace=wrap;connectable=0;fillColor=default;top=1;left=1;bottom=1;right=1;align=left;spacingLeft=6;overflow=hidden;pointerEvents=1;rounded=0;shadow=0;labelBackgroundColor=none;labelBorderColor=none;comic=0;sketch=0;fontFamily=Verdana;fontSize=14;fontColor=default;startSize=26;strokeColor=default;strokeWidth=1;" parent="319" vertex="1">
                    <mxGeometry x="70" width="210" height="40" as="geometry">
                        <mxRectangle width="210" height="40" as="alternateBounds"/>
                    </mxGeometry>
                </mxCell>
                <mxCell id="322" style="shape=partialRectangle;html=1;whiteSpace=wrap;collapsible=0;dropTarget=0;pointerEvents=1;fillColor=none;top=0;left=0;bottom=1;right=0;points=[[0,0.5],[1,0.5]];portConstraint=eastwest;rounded=0;shadow=0;labelBackgroundColor=none;labelBorderColor=none;comic=0;sketch=0;fontFamily=Verdana;fontSize=14;fontColor=default;startSize=26;strokeColor=default;strokeWidth=1;" parent="318" vertex="1">
                    <mxGeometry y="80" width="280" height="40" as="geometry"/>
                </mxCell>
                <mxCell id="323" value="SK&lt;br&gt;String" style="shape=partialRectangle;html=1;whiteSpace=wrap;connectable=0;fillColor=default;top=1;left=1;bottom=1;right=1;overflow=hidden;pointerEvents=1;rounded=0;shadow=0;labelBackgroundColor=none;labelBorderColor=none;comic=0;sketch=0;fontFamily=Verdana;fontSize=14;fontColor=default;startSize=26;strokeColor=default;strokeWidth=1;align=center;" parent="322" vertex="1">
                    <mxGeometry width="70" height="40" as="geometry">
                        <mxRectangle width="70" height="40" as="alternateBounds"/>
                    </mxGeometry>
                </mxCell>
                <mxCell id="324" value="userId" style="shape=partialRectangle;html=1;whiteSpace=wrap;connectable=0;fillColor=default;top=1;left=1;bottom=1;right=1;align=left;spacingLeft=6;overflow=hidden;pointerEvents=1;rounded=0;shadow=0;labelBackgroundColor=none;labelBorderColor=none;comic=0;sketch=0;fontFamily=Verdana;fontSize=14;fontColor=default;startSize=26;strokeColor=default;strokeWidth=1;" parent="322" vertex="1">
                    <mxGeometry x="70" width="210" height="40" as="geometry">
                        <mxRectangle width="210" height="40" as="alternateBounds"/>
                    </mxGeometry>
                </mxCell>
                <mxCell id="325" style="shape=partialRectangle;html=1;whiteSpace=wrap;collapsible=0;dropTarget=0;pointerEvents=1;fillColor=none;top=0;left=0;bottom=1;right=0;points=[[0,0.5],[1,0.5]];portConstraint=eastwest;rounded=0;shadow=0;labelBackgroundColor=none;labelBorderColor=none;comic=0;sketch=0;fontFamily=Verdana;fontSize=14;fontColor=default;startSize=26;strokeColor=default;strokeWidth=1;" parent="318" vertex="1">
                    <mxGeometry y="120" width="280" height="40" as="geometry"/>
                </mxCell>
                <mxCell id="326" value="SK&lt;br&gt;String" style="shape=partialRectangle;html=1;whiteSpace=wrap;connectable=0;fillColor=default;top=1;left=1;bottom=1;right=1;overflow=hidden;pointerEvents=1;rounded=0;shadow=0;labelBackgroundColor=none;labelBorderColor=none;comic=0;sketch=0;fontFamily=Verdana;fontSize=14;fontColor=default;startSize=26;strokeColor=default;strokeWidth=1;align=center;" parent="325" vertex="1">
                    <mxGeometry width="70" height="40" as="geometry">
                        <mxRectangle width="70" height="40" as="alternateBounds"/>
                    </mxGeometry>
                </mxCell>
                <mxCell id="327" value="permissionId" style="shape=partialRectangle;html=1;whiteSpace=wrap;connectable=0;fillColor=default;top=1;left=1;bottom=1;right=1;align=left;spacingLeft=6;overflow=hidden;pointerEvents=1;rounded=0;shadow=0;labelBackgroundColor=none;labelBorderColor=none;comic=0;sketch=0;fontFamily=Verdana;fontSize=14;fontColor=default;startSize=26;strokeColor=default;strokeWidth=1;" parent="325" vertex="1">
                    <mxGeometry x="70" width="210" height="40" as="geometry">
                        <mxRectangle width="210" height="40" as="alternateBounds"/>
                    </mxGeometry>
                </mxCell>
                <mxCell id="395" value="" style="edgeStyle=none;html=1;" parent="1" source="343" target="382" edge="1">
                    <mxGeometry relative="1" as="geometry"/>
                </mxCell>
                <mxCell id="343" value="&lt;font style=&quot;font-size: 64px&quot;&gt;permissions&lt;/font&gt;" style="text;html=1;strokeColor=none;fillColor=none;align=center;verticalAlign=middle;whiteSpace=wrap;rounded=0;" parent="1" vertex="1">
                    <mxGeometry x="320" y="-400" width="340" height="80" as="geometry"/>
                </mxCell>
                <mxCell id="344" value="permissions" style="shape=table;startSize=40;container=1;collapsible=0;childLayout=tableLayout;fixedRows=1;rowLines=1;fontStyle=1;align=center;pointerEvents=1;rounded=0;shadow=0;labelBackgroundColor=none;labelBorderColor=none;comic=0;sketch=0;fontFamily=Verdana;fontSize=14;fontColor=default;strokeColor=default;strokeWidth=1;fillColor=#4A62FF;gradientColor=none;html=1;resizeLast=1;autosize=1;" parent="1" vertex="1">
                    <mxGeometry x="320" y="-320" width="280" height="120" as="geometry"/>
                </mxCell>
                <mxCell id="345" value="" style="shape=partialRectangle;html=1;whiteSpace=wrap;collapsible=0;dropTarget=0;pointerEvents=1;fillColor=none;top=0;left=0;bottom=1;right=0;points=[[0,0.5],[1,0.5]];portConstraint=eastwest;rounded=0;shadow=0;labelBackgroundColor=none;labelBorderColor=none;comic=0;sketch=0;fontFamily=Verdana;fontSize=14;fontColor=default;startSize=26;strokeColor=default;strokeWidth=1;" parent="344" vertex="1">
                    <mxGeometry y="40" width="280" height="40" as="geometry"/>
                </mxCell>
                <mxCell id="346" value="PK&lt;br&gt;String" style="shape=partialRectangle;html=1;whiteSpace=wrap;connectable=0;fillColor=default;top=1;left=1;bottom=1;right=1;overflow=hidden;pointerEvents=1;rounded=0;shadow=0;labelBackgroundColor=none;labelBorderColor=none;comic=0;sketch=0;fontFamily=Verdana;fontSize=14;fontColor=default;startSize=26;strokeColor=default;strokeWidth=1;align=center;" parent="345" vertex="1">
                    <mxGeometry width="70" height="40" as="geometry">
                        <mxRectangle width="70" height="40" as="alternateBounds"/>
                    </mxGeometry>
                </mxCell>
                <mxCell id="347" value="id" style="shape=partialRectangle;html=1;whiteSpace=wrap;connectable=0;fillColor=default;top=1;left=1;bottom=1;right=1;align=left;spacingLeft=6;overflow=hidden;pointerEvents=1;rounded=0;shadow=0;labelBackgroundColor=none;labelBorderColor=none;comic=0;sketch=0;fontFamily=Verdana;fontSize=14;fontColor=default;startSize=26;strokeColor=default;strokeWidth=1;" parent="345" vertex="1">
                    <mxGeometry x="70" width="210" height="40" as="geometry">
                        <mxRectangle width="210" height="40" as="alternateBounds"/>
                    </mxGeometry>
                </mxCell>
                <mxCell id="348" style="shape=partialRectangle;html=1;whiteSpace=wrap;collapsible=0;dropTarget=0;pointerEvents=1;fillColor=none;top=0;left=0;bottom=1;right=0;points=[[0,0.5],[1,0.5]];portConstraint=eastwest;rounded=0;shadow=0;labelBackgroundColor=none;labelBorderColor=none;comic=0;sketch=0;fontFamily=Verdana;fontSize=14;fontColor=default;startSize=26;strokeColor=default;strokeWidth=1;" parent="344" vertex="1">
                    <mxGeometry y="80" width="280" height="40" as="geometry"/>
                </mxCell>
                <mxCell id="349" value="String" style="shape=partialRectangle;html=1;whiteSpace=wrap;connectable=0;fillColor=default;top=1;left=1;bottom=1;right=1;overflow=hidden;pointerEvents=1;rounded=0;shadow=0;labelBackgroundColor=none;labelBorderColor=none;comic=0;sketch=0;fontFamily=Verdana;fontSize=14;fontColor=default;startSize=26;strokeColor=default;strokeWidth=1;align=center;" parent="348" vertex="1">
                    <mxGeometry width="70" height="40" as="geometry">
                        <mxRectangle width="70" height="40" as="alternateBounds"/>
                    </mxGeometry>
                </mxCell>
                <mxCell id="350" value="name" style="shape=partialRectangle;html=1;whiteSpace=wrap;connectable=0;fillColor=default;top=1;left=1;bottom=1;right=1;align=left;spacingLeft=6;overflow=hidden;pointerEvents=1;rounded=0;shadow=0;labelBackgroundColor=none;labelBorderColor=none;comic=0;sketch=0;fontFamily=Verdana;fontSize=14;fontColor=default;startSize=26;strokeColor=default;strokeWidth=1;" parent="348" vertex="1">
                    <mxGeometry x="70" width="210" height="40" as="geometry">
                        <mxRectangle width="210" height="40" as="alternateBounds"/>
                    </mxGeometry>
                </mxCell>
                <mxCell id="385" value="subPermissions" style="shape=table;startSize=38;container=1;collapsible=0;childLayout=tableLayout;fixedRows=1;rowLines=1;fontStyle=1;align=center;pointerEvents=1;rounded=0;shadow=0;labelBackgroundColor=none;labelBorderColor=none;comic=0;sketch=0;fontFamily=Verdana;fontSize=14;fontColor=default;strokeColor=default;strokeWidth=1;fillColor=#4A62FF;gradientColor=none;html=1;resizeLast=1;autosize=1;" parent="1" vertex="1">
                    <mxGeometry x="640" y="-320" width="280" height="118" as="geometry"/>
                </mxCell>
                <mxCell id="386" value="" style="shape=partialRectangle;html=1;whiteSpace=wrap;collapsible=0;dropTarget=0;pointerEvents=1;fillColor=none;top=0;left=0;bottom=1;right=0;points=[[0,0.5],[1,0.5]];portConstraint=eastwest;rounded=0;shadow=0;labelBackgroundColor=none;labelBorderColor=none;comic=0;sketch=0;fontFamily=Verdana;fontSize=14;fontColor=default;startSize=26;strokeColor=default;strokeWidth=1;" parent="385" vertex="1">
                    <mxGeometry y="38" width="280" height="40" as="geometry"/>
                </mxCell>
                <mxCell id="387" value="PK&lt;br&gt;String" style="shape=partialRectangle;html=1;whiteSpace=wrap;connectable=0;fillColor=default;top=1;left=1;bottom=1;right=1;overflow=hidden;pointerEvents=1;rounded=0;shadow=0;labelBackgroundColor=none;labelBorderColor=none;comic=0;sketch=0;fontFamily=Verdana;fontSize=14;fontColor=default;startSize=26;strokeColor=default;strokeWidth=1;align=center;" parent="386" vertex="1">
                    <mxGeometry width="70" height="40" as="geometry">
                        <mxRectangle width="70" height="40" as="alternateBounds"/>
                    </mxGeometry>
                </mxCell>
                <mxCell id="388" value="id" style="shape=partialRectangle;html=1;whiteSpace=wrap;connectable=0;fillColor=default;top=1;left=1;bottom=1;right=1;align=left;spacingLeft=6;overflow=hidden;pointerEvents=1;rounded=0;shadow=0;labelBackgroundColor=none;labelBorderColor=none;comic=0;sketch=0;fontFamily=Verdana;fontSize=14;fontColor=default;startSize=26;strokeColor=default;strokeWidth=1;" parent="386" vertex="1">
                    <mxGeometry x="70" width="210" height="40" as="geometry">
                        <mxRectangle width="210" height="40" as="alternateBounds"/>
                    </mxGeometry>
                </mxCell>
                <mxCell id="389" style="shape=partialRectangle;html=1;whiteSpace=wrap;collapsible=0;dropTarget=0;pointerEvents=1;fillColor=none;top=0;left=0;bottom=1;right=0;points=[[0,0.5],[1,0.5]];portConstraint=eastwest;rounded=0;shadow=0;labelBackgroundColor=none;labelBorderColor=none;comic=0;sketch=0;fontFamily=Verdana;fontSize=14;fontColor=default;startSize=26;strokeColor=default;strokeWidth=1;" parent="385" vertex="1">
                    <mxGeometry y="78" width="280" height="40" as="geometry"/>
                </mxCell>
                <mxCell id="390" value="String" style="shape=partialRectangle;html=1;whiteSpace=wrap;connectable=0;fillColor=default;top=1;left=1;bottom=1;right=1;overflow=hidden;pointerEvents=1;rounded=0;shadow=0;labelBackgroundColor=none;labelBorderColor=none;comic=0;sketch=0;fontFamily=Verdana;fontSize=14;fontColor=default;startSize=26;strokeColor=default;strokeWidth=1;align=center;" parent="389" vertex="1">
                    <mxGeometry width="70" height="40" as="geometry">
                        <mxRectangle width="70" height="40" as="alternateBounds"/>
                    </mxGeometry>
                </mxCell>
                <mxCell id="391" value="name" style="shape=partialRectangle;html=1;whiteSpace=wrap;connectable=0;fillColor=default;top=1;left=1;bottom=1;right=1;align=left;spacingLeft=6;overflow=hidden;pointerEvents=1;rounded=0;shadow=0;labelBackgroundColor=none;labelBorderColor=none;comic=0;sketch=0;fontFamily=Verdana;fontSize=14;fontColor=default;startSize=26;strokeColor=default;strokeWidth=1;" parent="389" vertex="1">
                    <mxGeometry x="70" width="210" height="40" as="geometry">
                        <mxRectangle width="210" height="40" as="alternateBounds"/>
                    </mxGeometry>
                </mxCell>
            </root>
        </mxGraphModel>
    </diagram>
</mxfile>
